<?xml version="1.0" encoding="UTF-8"?>
<svg xmlns="http://www.w3.org/2000/svg" version="1.1" viewBox="0 0 1024 1024">
  <!-- Generator: Adobe Illustrator 30.2.1, SVG Export Plug-In . SVG Version: 2.1.1 Build 1)  -->
  <g id="black">
    <path d="M895.254,198.472l-45.663-49.16-.19-17.187c-.044-3.969-1.689-7.753-4.561-10.492l-62.413-59.522-146.333-.111-74.016,76.529-31.583.019-40.703-39.989-175.77.196-60.653,64.411.054,21.86-76.172,77.841-.448,80.588-49.176,50.118.014,160.577,41.161,43.294v90.775l-25.073,25.677-.089,85.184,132.277,132.428c2.957,2.96,7,4.575,11.182,4.467l14.423-.373,29.463,26.398,132.509-.046,14.986-13.634,151.822-.745,70.815-69.495c2.483-2.482,5.743-5.788,9.44-5.819l50.851-.436c4.337-.037,8.487-1.777,11.553-4.845l75.907-75.927-.482-29.588,43.561-48.074v-237.235l-46.461-48.321.093-20.111,30.107-30.427.689-82.352,17.861-20.172,1.016-76.301Z" style="fill: #080808;"/>
  </g>
  <g id="grey">
    <path d="M585.49,187.553c3.219,0,6.3-1.305,8.54-3.617l66.045-68.169c.985-1.049,2.354-3.096,3.793-3.114h112.339l-16.484-18.393-102.559.071c-2.155.001-4.219.871-5.726,2.413l-69.198,70.803c-1.291,1.321-3.055,2.075-4.902,2.095l-99.263,1.059-25.589,26.75,35.11-.951,5.318-8.946h92.576Z" style="fill: #d8d8dd;"/>
    <path d="M817.093,158.644l.069,205.523-31.049,29.224h-28.019v13.373h5.578l-.679,135.134-9.485,10.076s-5.34,30.901-16.192,51.695c.39,2.183,1.665,3.621,3.481,5.414,24.218,23.916,69.623,73.823,69.623,73.823l-36.788,39.98-117.524.254-20.922,15.997,34.81,33.167,15.338-25.928h102.079l46.171-51.047c4.627-5.115,4.487-12.944-.32-17.891l-60.723-62.493.643-61.158s6.739-5.906,7.395-6.687v-140.334h13.12s41.048-37.899,41.779-38.917h.012s0-.018,0-.018l.875-84.564,18.287-23.726.114-58.951-37.673-41.944ZM818.221,363.883v-.233s0,0,0,0v.233Z" style="fill: #d8d8dd;"/>
    <path d="M366.441,908.695c-2.38-.006-3.926-1.553-3.918-3.873l.115-36.525-69.31-70.647c-1.944-1.981-2.045-5.121-.233-7.224l37.038-42.979-18.635-18.38-45.574.257,12.822,12.491-53.214,58.947-13.104-.053,15.185,16.54,48.22.338c3.231.023,6.326,1.308,8.622,3.582l58.287,57.729v39.493c0,4.706,3.815,8.52,8.52,8.52h74.264l15.192-18.017-74.277-.2Z" style="fill: #d8d8dd;"/>
    <polygon points="785.215 761.463 694.346 761.426 682.014 784.452 682.014 825.896 601.165 908.894 444.117 908.894 429.125 926.911 447.129 926.911 452.7 920.083 606.279 920.083 694.814 827.14 694.531 779.787 794.313 780.102 785.215 761.463" style="fill: #b1afb9;"/>
    <rect x="361.844" y="772.048" width="17.628" height="15.434" style="fill: #535354;"/>
    <rect x="388.956" y="772.048" width="17.628" height="15.434" style="fill: #2c2c2c;"/>
  </g>
  <g id="purple">
    <polygon points="794.282 133.217 672.54 133.217 627.973 178.559 627.973 334.157 647.227 334.157 647.227 193.416 805.589 145.91 794.282 133.217" style="fill: #a599ff;"/>
    <polygon points="484.053 144.857 464.744 144.973 416.512 192.818 298.41 193.905 216.072 276.946 215.261 357.169 192.497 379.607 182.843 382.366 166.577 399 167.21 543.957 206.918 586.009 206.918 698.133 183.332 723 183.332 758.247 219.108 789.758 261.366 743.21 225.841 707.616 225.841 582.699 199.421 555.263 199.452 421.986 236.775 363.617 236.775 297.742 319.09 216.203 420.449 215.988 472.798 161.621 499.954 161.088 484.053 144.857" style="fill: #a599ff;"/>
    <polygon points="859.986 551.592 807.216 503.013 807.216 468.121 859.986 516.699 859.986 551.592" style="fill: #a599ff;"/>
    <polygon points="859.986 604.881 807.216 556.302 807.216 521.41 859.986 569.989 859.986 604.881" style="fill: #a599ff;"/>
    <polygon points="859.986 658.17 807.216 609.591 807.216 574.699 859.986 623.278 859.986 658.17" style="fill: #a599ff;"/>
    <path d="M325.528,886.823h-32.466l-49.239-53.291h29.403c1.952,0,3.816.815,5.141,2.249l47.16,51.041Z" style="fill: #a599ff;"/>
    <rect x="523.564" y="785.204" width="21.389" height="70.834" style="fill: #a599ff;"/>
    <rect x="561.895" y="785.204" width="21.389" height="70.834" style="fill: #a599ff;"/>
    <path d="M592.776,892.144h-213.496v-29.113l-70.501-72.21,39.793-43.984h261.499l52.311,50.598v25.749l-69.606,68.96ZM397.967,876.262h186.239l57.62-60.79v-14.193l-38.583-40.431h-243.875l-26.582,29.717,65.18,66.761v18.936Z" style="fill: #a599ff;"/>
    <path d="M481.164,408.702c-42,0-76.047,34.048-76.047,76.047s34.048,76.047,76.047,76.047,76.047-34.048,76.047-76.047-34.048-76.047-76.047-76.047ZM481.164,546.807c-34.273,0-62.057-27.784-62.057-62.057s27.784-62.057,62.057-62.057,62.057,27.784,62.057,62.057-27.784,62.057-62.057,62.057Z" style="fill: #d2ccff;"/>
  </g>
  <g id="orange">
    <path d="M802.059,165.088l-140.968,41.793.005,146.321-.939.002-9.152-8.514h-39.806l-33.843,35.75v27.965l21.15,25.286h45.838l40.02-29.684v-148.409l91.716-25.888v78.866l-9.971-5.591-35.249,6.412-22.856,26.145v26.113l21.13,19.312h49.223l23.702-19.867v-196.011Z" style="fill: #ff4800;"/>
    <path d="M503.632,819.761l-78.021-45.046c-3.606-2.082-8.113.52-8.113,4.684v80.723c0,4.164,4.507,6.766,8.113,4.684l78.021-45.046Z" style="fill: #ff4800;"/>
    <path d="M481.164,426.579c-32.127,0-58.171,26.044-58.171,58.171s26.044,58.171,58.171,58.171,58.171-26.044,58.171-58.171-26.044-58.171-58.171-58.171ZM481.164,526.421c-23.014,0-41.671-18.657-41.671-41.671s18.657-41.671,41.671-41.671,41.671,18.657,41.671,41.671-18.657,41.671-41.671,41.671Z" style="fill: #ffb699;"/>
  </g>
  <g id="turquoise">
    <polygon points="361.952 136.12 339.244 136.12 315.913 176.329 338.622 176.329 361.952 136.12" style="fill: #01e9be;"/>
    <polygon points="397.011 136.12 374.302 136.12 350.972 176.329 373.681 176.329 397.011 136.12" style="fill: #01e9be;"/>
    <polygon points="432.07 136.12 409.361 136.12 386.031 176.329 408.739 176.329 432.07 136.12" style="fill: #01e9be;"/>
    <rect x="707.855" y="800.156" width="30.975" height="18.827" style="fill: #01e9be;"/>
    <rect x="750.861" y="800.156" width="30.975" height="18.827" style="fill: #01e9be;"/>
    <rect x="254.109" y="666.203" width="18.09" height="26.866" style="fill: #01e9be;"/>
    <rect x="283.09" y="658.036" width="18.09" height="43.2" style="fill: #01e9be;"/>
    <rect x="721.557" y="658.036" width="18.09" height="43.2" style="fill: #01e9be;"/>
    <rect x="749.604" y="666.203" width="18.09" height="26.866" style="fill: #01e9be;"/>
    <polygon points="329.227 686.233 329.227 693.069 311.137 693.069 311.137 666.203 329.227 666.203 329.227 673.28 344.707 673.28 360.362 644.866 383.435 685.971 420.72 589.342 461.417 693.344 491.479 647.165 513.873 681.282 531.313 661.633 545.778 679.041 561.761 679.061 583.371 633.988 613.856 685.896 637.144 666.343 660.327 666.343 673.457 674.215 692.575 674.215 692.575 666.203 710.665 666.203 710.665 693.069 692.575 693.069 692.575 687.167 666.913 687.167 658.911 680.677 640.891 680.677 610.117 706.867 584.306 661.993 569.062 695.731 541.575 695.731 531.313 682.795 511.068 704.486 491.479 673.506 458.612 725.46 420.72 632.491 383.435 724.422 361.063 675.93 353.282 686.233 329.227 686.233" style="fill: #01e9be;"/>
  </g>
  <g id="CD">
    <path d="M726.572,403.406h-10.286l-18.125-15.28-.2,24.556-51.338,37.656h-54.477l-27.33-31.765v-43.749l43.287-41.985h7.208v-69.055c-39.109-23.795-85.021-37.518-134.146-37.518-142.756,0-258.483,115.727-258.483,258.483,0,58.285,19.298,112.06,51.844,155.297h36.919v7.077h17.811l30.895-56.074,18.891,33.654,32.092-83.171c-12.585-15.502-20.131-35.26-20.131-56.784,0-49.796,40.367-90.163,90.163-90.163s90.163,40.367,90.163,90.163-40.367,90.163-90.163,90.163c-15.197,0-29.513-3.766-42.075-10.406l28.153,71.945,24.146-37.091,25.603,39.005,14.976-16.873,18.001,21.664,31.066-64.798,39.704,67.605,6.881-5.777h39.949l13.129,7.872h.819c36.332-44.519,58.131-101.365,58.131-163.309,0-28.421-4.601-55.765-13.075-81.344Z" style="fill: #e7e7ec;"/>
  </g>
  <g id="hologram">
    <path d="M263.989,376.377c-16.31,32.621-25.502,69.421-25.502,108.372,0,52.817,16.882,101.685,45.532,141.524,31.488-22.439,100.404-71.83,122.96-90.276-.053-.076-.102-.155-.154-.232-.265-.386-.519-.78-.779-1.171-.395-.595-.79-1.19-1.171-1.794-.274-.434-.538-.873-.805-1.312-.35-.576-.697-1.153-1.034-1.738-.265-.459-.523-.92-.78-1.384-.322-.582-.638-1.167-.948-1.757-.247-.469-.491-.94-.729-1.414-.304-.603-.597-1.213-.887-1.824-.223-.47-.448-.938-.663-1.412-.295-.649-.575-1.305-.854-1.962-.189-.444-.384-.884-.566-1.332-.326-.802-.633-1.613-.936-2.427-.116-.311-.242-.618-.355-.931-.402-1.116-.782-2.244-1.141-3.38-.118-.375-.223-.756-.336-1.133-.236-.784-.47-1.568-.686-2.361-.126-.463-.239-.931-.358-1.397-.182-.717-.362-1.435-.527-2.158-.113-.497-.217-.997-.323-1.497-.148-.706-.291-1.413-.423-2.125-.094-.509-.184-1.02-.269-1.533-.12-.718-.23-1.438-.333-2.161-.072-.509-.144-1.017-.208-1.528-.094-.75-.173-1.505-.248-2.261-.049-.488-.101-.974-.142-1.464-.069-.836-.119-1.676-.166-2.518-.023-.415-.055-.827-.072-1.244-.052-1.26-.083-2.526-.083-3.8,0-.85.014-1.697.038-2.542.007-.268.021-.535.031-.803.021-.579.045-1.157.077-1.732.017-.308.038-.614.058-.921.036-.543.075-1.086.121-1.626.025-.303.052-.606.081-.908.052-.559.111-1.116.174-1.671.031-.273.06-.546.094-.818.078-.639.164-1.275.255-1.909.026-.181.049-.364.076-.545.252-1.681.55-3.346.894-4.995.023-.111.049-.22.072-.331.15-.707.308-1.41.474-2.111.04-.167.081-.333.122-.499.16-.657.327-1.312.501-1.963.043-.16.086-.319.129-.478.188-.688.385-1.372.589-2.054.032-.106.062-.212.094-.317.989-3.259,2.159-6.44,3.496-9.532.01-.024.021-.047.031-.07.324-.747.658-1.489,1.001-2.226.019-.041.038-.082.058-.123.352-.751.713-1.497,1.084-2.237,0,0,0,0,0,0l-136.56-67.96Z" style="fill: #d8d8dd;"/>
    <g>
      <path d="M697.961,412.682l-40.64,29.81,59.764-14.77c-2.667-11.073-6.104-21.845-10.232-32.269l-8.691-7.327-.2,24.556Z" style="fill: #d8d8dd;"/>
      <path d="M608.102,332.839h7.208v-50.332c-38.426-25.544-84.544-40.434-134.146-40.434-33.201,0-64.841,6.675-93.662,18.744l60.709,139.982c1.259-.495,2.533-.961,3.819-1.4.023-.008.047-.017.07-.025,1.229-.418,2.472-.807,3.724-1.173.106-.031.211-.064.317-.094,1.205-.347,2.422-.667,3.647-.965.154-.037.307-.076.461-.113,1.201-.285,2.412-.545,3.631-.782.178-.035.356-.069.534-.102,1.212-.228,2.433-.432,3.662-.611.182-.026.365-.051.547-.077,1.239-.172,2.486-.322,3.741-.444.161-.016.323-.028.484-.043,1.286-.118,2.579-.213,3.88-.276.109-.005.219-.008.328-.012,1.362-.061,2.731-.097,4.108-.097,1.215,0,2.422.031,3.625.079.193.008.387.013.58.022,1.148.053,2.289.128,3.425.224.218.018.435.038.653.058,1.148.105,2.291.226,3.425.373.135.018.268.038.403.056,1.109.149,2.211.317,3.306.506.119.02.238.038.357.059,1.122.198,2.236.421,3.343.66.208.045.417.09.624.136,1.086.242,2.164.504,3.235.785.187.049.372.101.558.151,1.112.3,2.217.614,3.311.955.025.008.049.016.074.024,1.086.339,2.16.703,3.228,1.082.164.058.33.115.494.174,1.036.374,2.061.769,3.079,1.179.194.078.387.157.58.237,1.022.421,2.036.857,3.039,1.313.127.058.252.118.379.177.989.456,1.969.928,2.938,1.419.085.043.17.083.255.127.992.506,1.97,1.033,2.94,1.574.173.096.346.192.518.289.945.535,1.88,1.087,2.804,1.655.159.098.317.198.475.297.953.594,1.897,1.201,2.826,1.83.034.023.068.048.103.071.917.622,1.819,1.264,2.712,1.919.127.093.254.184.381.277.875.649,1.736,1.315,2.586,1.995.155.124.31.249.464.374.849.688,1.688,1.389,2.511,2.107.105.092.208.185.313.277.824.725,1.636,1.463,2.433,2.218.047.044.094.087.141.131.809.769,1.599,1.556,2.379,2.354.128.131.258.262.385.394.755.782,1.495,1.577,2.221,2.386.12.134.239.269.358.403.744.839,1.477,1.688,2.19,2.555.032.039.062.078.094.117.705.859,1.392,1.734,2.065,2.619.082.108.166.215.248.324.662.879,1.306,1.772,1.937,2.675.108.155.216.311.323.466.624.907,1.234,1.825,1.826,2.755.075.118.148.238.223.357.601.956,1.188,1.921,1.754,2.901.015.026.031.052.047.079.568.985,1.113,1.985,1.645,2.994.08.152.161.304.241.456.509.979,1,1.969,1.473,2.969.077.162.152.325.228.488.48,1.028.945,2.065,1.386,3.114.025.059.048.119.073.179.436,1.041.85,2.093,1.247,3.154.042.113.086.224.128.337.391,1.057.76,2.125,1.112,3.201.058.179.117.357.174.536.344,1.072.669,2.152.974,3.241.04.143.077.287.116.43.311,1.137.606,2.281.874,3.435,0,0,0,.001,0,.002l56.569-13.981h-33.425l-27.33-31.765v-43.749l43.287-41.985Z" style="fill: #d8d8dd;"/>
    </g>
    <path d="M395.363,456.988l-142.314-55.211c-2.334,6.415-4.393,12.961-6.188,19.615l146.653,42.16c.535-2.221,1.153-4.41,1.849-6.564Z" style="fill: #bcbdc9;"/>
    <path d="M564.965,518.076c-2.72,6.835-6.253,13.258-10.478,19.151l121.854,91.745c11.427-15.439,21.07-32.276,28.615-50.216l-139.991-60.68Z" style="fill: #a486de;"/>
    <path d="M413.399,425.281l-112.578-102.901c-15.173,16.842-28.021,35.817-38.038,56.426l137.085,66.906c3.576-7.434,8.146-14.299,13.531-20.431Z" style="fill: #7d48e6;"/>
    <path d="M522.303,404.499c.892.458,1.773.936,2.648,1.423.166.092.331.184.496.277.879.497,1.751,1.004,2.612,1.529.03.018.059.037.089.055.833.51,1.655,1.036,2.471,1.571.143.094.287.188.43.283.845.562,1.681,1.136,2.506,1.726.038.027.075.055.113.083.797.572,1.582,1.158,2.359,1.755.11.085.221.169.331.254.814.631,1.618,1.274,2.409,1.932.033.028.066.056.099.084.772.644,1.533,1.302,2.283,1.971.072.064.144.127.216.191.782.702,1.553,1.417,2.31,2.146.022.021.044.043.066.064.753.726,1.493,1.467,2.221,2.219.03.031.061.062.091.094.748.775,1.481,1.563,2.201,2.364.009.01.018.02.026.03,4.389,4.89,8.249,10.262,11.496,16.026,0,0,0,0,0,0l17.651-7.346-12.612-14.658v-43.749l43.287-41.985h7.208v-50.331c-10.339-6.872-21.236-12.972-32.608-18.218l-60.4,140.21Z" style="fill: #bcbdc9;"/>
    <path d="M567.275,457.944c.292.94.564,1.889.826,2.842.065.238.13.476.193.714.255.958.5,1.92.724,2.89,0,.002,0,.003.001.005.223.967.425,1.943.617,2.922.048.244.095.489.141.734.185.985.359,1.973.511,2.969,0,0,0,0,0,.001.152.994.281,1.996.401,3.001.03.25.058.499.086.75.222,2.016.377,4.052.464,6.105.011.257.021.514.029.772.035,1.029.059,2.061.059,3.099,0,1.081-.026,2.156-.064,3.228-.008.237-.017.474-.027.711-.046,1.066-.106,2.129-.189,3.185-.006.079-.015.157-.021.236-.083,1.029-.186,2.053-.304,3.072-.018.156-.035.313-.054.469-.131,1.091-.281,2.176-.451,3.254-.009.06-.02.119-.03.178-.176,1.104-.372,2.201-.588,3.291-.004.019-.007.039-.011.058-.225,1.129-.471,2.25-.737,3.363-.004.018-.009.037-.013.055-.538,2.242-1.159,4.45-1.861,6.623l142.35,55.113c9.387-25.85,14.513-53.744,14.513-82.837,0-23.126-3.237-45.494-9.279-66.681l-37.953,10.275-29.986,21.995h-51.259l-28.089,7.604v.002Z" style="fill: #bcbdc9;"/>
    <path d="M516.693,637.911l-10.79-66.435c-.895.255-1.798.492-2.704.72-.224.056-.45.11-.675.165-.723.176-1.449.342-2.178.5-.21.045-.418.093-.629.137-.913.191-1.83.37-2.753.533-.126.022-.254.041-.38.063-.797.137-1.598.263-2.402.379-.258.037-.517.073-.776.109-.776.105-1.555.201-2.337.287-.166.018-.331.04-.498.057-.932.097-1.868.178-2.808.246-.234.017-.468.029-.702.045-.736.047-1.475.086-2.215.116-.27.011-.54.022-.811.031-.953.03-1.909.05-2.87.05-1.058,0-2.111-.023-3.16-.059-.301-.01-.599-.028-.899-.042-.763-.034-1.525-.075-2.283-.127-.321-.022-.641-.049-.961-.075-.755-.061-1.508-.13-2.258-.21-.29-.031-.58-.061-.869-.094-.819-.095-1.634-.201-2.446-.318-.155-.022-.312-.038-.467-.061l.852,60.327,22.716-34.895,25.305,38.55Z" style="fill: #d8d8dd;"/>
    <path d="M474.656,574.672c-4.053-.29-8.031-.848-11.919-1.656-.222-.046-.445-.088-.666-.135-.52-.112-1.035-.235-1.551-.356-.351-.082-.703-.161-1.052-.247-.449-.111-.894-.23-1.341-.348-.414-.109-.829-.217-1.241-.332-.398-.111-.793-.228-1.189-.345-.46-.135-.919-.271-1.376-.413-.354-.11-.706-.225-1.059-.34-.496-.161-.99-.325-1.482-.494-.317-.109-.632-.221-.948-.334-.527-.188-1.051-.381-1.573-.578-.279-.106-.558-.212-.836-.321-.558-.218-1.113-.441-1.666-.669-.241-.1-.483-.199-.723-.301-.593-.251-1.181-.509-1.767-.772-.198-.089-.396-.176-.592-.266-.635-.291-1.265-.59-1.892-.895-.148-.072-.296-.142-.443-.214-.691-.341-1.377-.691-2.058-1.049-.064-.034-.129-.065-.193-.099l28.153,71.945,8.246-12.668-.572-49.091c-.087-.006-.174-.015-.261-.022Z" style="fill: #bcbdc9;"/>
    <path d="M311.443,647.124h17.811l30.895-56.074,18.891,33.654,32.091-83.169c-2.35-2.893-4.521-5.937-6.503-9.111-.08-.128-.154-.26-.234-.389-.5-.81-.998-1.622-1.472-2.449l-123.538,90.014c4.749,7.091,9.868,13.911,15.318,20.446h16.741v7.077Z" style="fill: #bcbdc9;"/>
  </g>
</svg>