<?xml version="1.0" encoding="UTF-8"?>
<svg xmlns="http://www.w3.org/2000/svg" version="1.1" viewBox="0 0 1024 1024">
  <!-- Generator: Adobe Illustrator 30.2.1, SVG Export Plug-In . SVG Version: 2.1.1 Build 1)  -->
  <g id="black">
    <path d="M948.134,155.275l-51.954-55.933-.216-19.555c-.05-4.516-1.921-8.821-5.19-11.938L819.762.126l-166.495-.126-84.214,87.073-35.934.022-46.311-45.499-199.987.223-69.009,73.286.061,24.872-86.667,88.566-.509,91.691-55.951,57.024.016,182.7,46.832,49.258v103.282l-28.527,29.215-.101,96.92,150.502,150.673c3.364,3.368,7.964,5.206,12.723,5.083l16.411-.424,33.523,30.035,150.766-.052,17.051-15.513,172.74-.847,80.572-79.07c2.825-2.824,6.534-6.585,10.74-6.621l57.858-.497c4.935-.042,9.656-2.022,13.145-5.512l86.365-86.388-.548-33.664,49.563-54.698v-269.921l-52.862-54.979.105-22.882,34.255-34.619.784-93.698,20.321-22.951,1.155-86.814Z" style="fill: #080808;"/>
  </g>
  <g id="grey">
    <path d="M595.692,142.851c3.662,0,7.168-1.485,9.716-4.115l75.144-77.561c1.121-1.193,2.679-3.523,4.315-3.543h127.817l-18.755-20.927-116.69.081c-2.452.002-4.801.991-6.515,2.745l-78.732,80.558c-1.469,1.503-3.476,2.361-5.578,2.383l-112.939,1.205-29.114,30.436,39.947-1.083,6.051-10.179h105.331Z" style="fill: #d8d8dd;"/>
    <path d="M859.205,109.96l.079,233.84-35.326,33.25h-31.879v15.216h6.347l-.773,153.752-10.791,11.464s-6.076,35.158-18.423,58.817c.443,2.484,1.895,4.12,3.96,6.16,27.555,27.211,79.216,83.994,79.216,83.994l-41.856,45.488-133.716.289-23.805,18.201,39.606,37.737,17.451-29.5h116.143l52.532-58.08c5.264-5.82,5.105-14.728-.364-20.356l-69.089-71.103.731-69.584s7.668-6.72,8.414-7.609v-159.669h14.928s46.704-43.12,47.535-44.279h.014s0-.021,0-.021l.995-96.215,20.807-26.995.129-67.073-42.863-47.723ZM860.488,343.476v-.266s0,0,0,0v.266Z" style="fill: #d8d8dd;"/>
    <path d="M346.464,963.35c-2.708-.007-4.466-1.767-4.458-4.407l.13-41.557-78.86-80.38c-2.212-2.254-2.327-5.827-.265-8.219l42.141-48.901-21.203-20.912-51.853.293,14.589,14.212-60.546,67.069-14.909-.061,17.278,18.819,54.864.384c3.677.026,7.197,1.489,9.809,4.076l66.317,65.683v44.935c0,5.354,4.34,9.694,9.694,9.694h84.496l17.285-20.499-84.51-.227Z" style="fill: #d8d8dd;"/>
    <polygon points="822.935 795.834 719.547 795.791 705.515 821.99 705.515 869.143 613.527 963.577 434.841 963.577 417.784 984.077 438.268 984.077 444.607 976.308 619.345 976.308 720.078 870.559 719.757 816.683 833.286 817.041 822.935 795.834" style="fill: #b1afb9;"/>
    <rect x="341.233" y="807.877" width="20.057" height="17.561" style="fill: #535354;"/>
    <rect x="372.08" y="807.877" width="20.057" height="17.561" style="fill: #2c2c2c;"/>
  </g>
  <g id="purple">
    <polygon points="833.252 81.029 694.736 81.029 644.029 132.618 644.029 309.654 665.936 309.654 665.936 149.522 846.116 95.471 833.252 81.029" style="fill: #a599ff;"/>
    <polygon points="480.28 94.272 458.311 94.405 403.433 148.842 269.059 150.079 175.377 244.56 174.454 335.837 148.554 361.366 137.569 364.505 119.063 383.431 119.783 548.36 164.962 596.206 164.962 723.778 138.126 752.071 138.126 792.175 178.831 828.027 226.911 775.065 186.492 734.567 186.492 592.44 156.431 561.223 156.467 409.585 198.932 343.173 198.932 268.222 292.588 175.448 407.912 175.204 467.474 113.346 498.372 112.74 480.28 94.272" style="fill: #a599ff;"/>
    <polygon points="908.008 557.047 847.967 501.774 847.967 462.075 908.008 517.347 908.008 557.047" style="fill: #a599ff;"/>
    <polygon points="908.008 617.678 847.967 562.406 847.967 522.706 908.008 577.978 908.008 617.678" style="fill: #a599ff;"/>
    <polygon points="908.008 678.309 847.967 623.037 847.967 583.337 908.008 638.609 908.008 678.309" style="fill: #a599ff;"/>
    <path d="M299.913,938.465h-36.939l-56.023-60.633h33.455c2.221,0,4.342.928,5.849,2.559l53.658,58.073Z" style="fill: #a599ff;"/>
    <rect x="525.235" y="822.846" width="24.336" height="80.593" style="fill: #a599ff;"/>
    <rect x="568.847" y="822.846" width="24.336" height="80.593" style="fill: #a599ff;"/>
    <path d="M603.983,944.519h-242.911v-33.124l-80.215-82.159,45.276-50.044h297.528l59.518,57.57v29.297l-79.196,78.461ZM382.333,926.449h211.899l65.558-69.165v-16.148l-43.898-46.001h-277.475l-30.244,33.811,74.161,75.959v21.545Z" style="fill: #a599ff;"/>
    <path d="M476.992,394.47c-47.786,0-86.525,38.739-86.525,86.525s38.739,86.525,86.525,86.525,86.525-38.739,86.525-86.525-38.739-86.525-86.525-86.525ZM476.992,551.603c-38.995,0-70.607-31.612-70.607-70.607s31.612-70.607,70.607-70.607,70.607,31.612,70.607,70.607-31.612,70.607-70.607,70.607Z" style="fill: #d2ccff;"/>
  </g>
  <g id="orange">
    <path d="M842.1,117.291l-160.39,47.551.005,166.481-1.069.002-10.413-9.687h-45.291l-38.506,40.675v31.818l24.064,28.77h52.154l45.534-33.773v-168.857l104.352-29.455v89.732l-11.345-6.361-40.105,7.296-26.006,29.747v29.711l24.042,21.972h56.005l26.968-22.604V117.291Z" style="fill: #ff4800;"/>
    <path d="M502.557,862.163l-88.771-51.252c-4.103-2.369-9.231.592-9.231,5.329v91.845c0,4.737,5.128,7.698,9.231,5.329l88.771-51.252Z" style="fill: #ff4800;"/>
    <path d="M476.992,414.809c-36.553,0-66.186,29.632-66.186,66.186s29.632,66.186,66.186,66.186,66.186-29.632,66.186-66.186-29.632-66.186-66.186-66.186ZM476.992,528.408c-26.185,0-47.413-21.227-47.413-47.413s21.227-47.413,47.413-47.413,47.413,21.227,47.413,47.413-21.227,47.413-47.413,47.413Z" style="fill: #ffb699;"/>
  </g>
  <g id="turquoise">
    <polygon points="341.356 84.333 315.519 84.333 288.974 130.081 314.812 130.081 341.356 84.333" style="fill: #01e9be;"/>
    <polygon points="381.245 84.333 355.408 84.333 328.863 130.081 354.701 130.081 381.245 84.333" style="fill: #01e9be;"/>
    <polygon points="421.134 84.333 395.297 84.333 368.752 130.081 394.59 130.081 421.134 84.333" style="fill: #01e9be;"/>
    <rect x="734.917" y="839.857" width="35.243" height="21.421" style="fill: #01e9be;"/>
    <rect x="783.848" y="839.857" width="35.243" height="21.421" style="fill: #01e9be;"/>
    <rect x="218.654" y="687.448" width="20.582" height="30.568" style="fill: #01e9be;"/>
    <rect x="251.629" y="678.157" width="20.582" height="49.152" style="fill: #01e9be;"/>
    <rect x="750.506" y="678.157" width="20.582" height="49.152" style="fill: #01e9be;"/>
    <rect x="782.418" y="687.448" width="20.582" height="30.568" style="fill: #01e9be;"/>
    <polygon points="304.122 710.238 304.122 718.017 283.54 718.017 283.54 687.448 304.122 687.448 304.122 695.501 321.735 695.501 339.547 663.172 365.799 709.94 408.221 599.999 454.525 718.33 488.729 665.788 514.208 704.605 534.051 682.249 550.509 702.055 568.694 702.078 593.282 650.796 627.967 709.855 654.463 687.608 680.841 687.608 695.779 696.564 717.532 696.564 717.532 687.448 738.114 687.448 738.114 718.017 717.532 718.017 717.532 711.302 688.334 711.302 679.23 703.917 658.726 703.917 623.712 733.715 594.345 682.659 577.001 721.045 545.727 721.045 534.051 706.327 511.017 731.006 488.729 695.758 451.334 754.87 408.221 649.092 365.799 753.689 340.344 698.515 331.492 710.238 304.122 710.238" style="fill: #01e9be;"/>
  </g>
  <g id="CD">
    <path d="M756.212,388.444h-11.703l-20.623-17.386-.228,27.939-58.411,42.845h-61.982l-31.096-36.141v-49.776l49.251-47.77h8.201v-78.569c-44.497-27.073-96.735-42.687-152.629-42.687-162.425,0-294.096,131.671-294.096,294.096,0,66.316,21.957,127.499,58.987,176.693h42.005v8.052h20.265l35.152-63.799,21.493,38.291,36.513-94.63c-14.319-17.638-22.905-40.118-22.905-64.607,0-56.657,45.929-102.586,102.586-102.586s102.586,45.929,102.586,102.586-45.929,102.586-102.586,102.586c-17.291,0-33.579-4.284-47.871-11.84l32.032,81.858,27.472-42.202,29.131,44.379,17.039-19.198,20.481,24.649,35.346-73.725,45.174,76.919,7.829-6.573h45.454l14.938,8.956h.931c41.337-50.653,66.14-115.331,66.14-185.809,0-32.337-5.235-63.448-14.876-92.551Z" style="fill: #e7e7ec;"/>
  </g>
  <g id="hologram">
    <path d="M229.896,357.692c-18.557,37.115-29.016,78.985-29.016,123.304,0,60.094,19.208,115.695,51.805,161.022,35.827-25.53,114.237-81.727,139.901-102.714-.06-.087-.116-.177-.175-.264-.302-.439-.591-.888-.886-1.332-.45-.676-.898-1.354-1.333-2.041-.312-.494-.613-.994-.916-1.493-.398-.655-.793-1.312-1.176-1.977-.301-.522-.596-1.047-.888-1.575-.367-.662-.726-1.328-1.079-1.999-.281-.534-.558-1.069-.83-1.608-.345-.687-.679-1.38-1.01-2.075-.254-.534-.51-1.067-.754-1.606-.335-.738-.654-1.485-.972-2.233-.215-.505-.437-1.006-.644-1.516-.371-.912-.72-1.836-1.065-2.761-.132-.354-.275-.703-.404-1.059-.458-1.27-.89-2.553-1.298-3.846-.135-.427-.253-.86-.383-1.289-.269-.892-.535-1.784-.78-2.686-.143-.527-.272-1.06-.407-1.59-.208-.816-.412-1.632-.6-2.455-.129-.565-.247-1.134-.367-1.703-.169-.803-.331-1.608-.481-2.417-.107-.58-.209-1.161-.306-1.744-.137-.816-.262-1.636-.379-2.459-.082-.579-.164-1.157-.237-1.739-.107-.854-.197-1.712-.282-2.572-.055-.555-.115-1.108-.162-1.666-.079-.951-.136-1.907-.188-2.865-.026-.472-.063-.941-.082-1.415-.06-1.434-.095-2.874-.095-4.323,0-.967.016-1.931.043-2.892.008-.305.024-.609.035-.913.024-.658.051-1.316.088-1.971.019-.35.043-.699.066-1.048.041-.618.086-1.235.137-1.851.029-.345.059-.69.092-1.034.06-.636.126-1.269.197-1.901.035-.311.069-.621.106-.931.089-.727.187-1.45.29-2.172.03-.206.056-.414.087-.62.287-1.912.626-3.807,1.017-5.683.026-.126.055-.251.082-.377.171-.804.35-1.605.539-2.402.045-.19.092-.378.139-.568.182-.748.372-1.492.571-2.234.049-.182.098-.363.147-.544.214-.783.438-1.562.67-2.337.036-.12.071-.241.107-.361,1.126-3.709,2.456-7.327,3.977-10.845.012-.027.023-.053.035-.08.369-.85.749-1.694,1.139-2.532.022-.047.044-.094.066-.141.4-.855.811-1.704,1.234-2.545,0,0,0,0,0,0l-155.375-77.323Z" style="fill: #d8d8dd;"/>
    <g>
      <path d="M723.659,398.998l-46.24,33.917,67.998-16.805c-3.035-12.599-6.945-24.855-11.641-36.714l-9.889-8.336-.228,27.939Z" style="fill: #d8d8dd;"/>
      <path d="M621.42,308.155h8.201v-57.267c-43.72-29.063-96.192-46.005-152.629-46.005-37.776,0-73.775,7.595-106.567,21.327l69.074,159.268c1.433-.563,2.882-1.093,4.345-1.592.027-.009.053-.019.08-.028,1.398-.476,2.812-.918,4.237-1.335.12-.035.24-.073.361-.107,1.371-.395,2.755-.759,4.15-1.098.175-.043.349-.086.525-.128,1.367-.325,2.744-.62,4.132-.89.202-.039.405-.078.607-.116,1.379-.259,2.768-.491,4.166-.695.207-.03.415-.058.622-.087,1.41-.196,2.828-.367,4.256-.505.183-.018.367-.032.55-.049,1.464-.134,2.934-.242,4.415-.314.124-.006.249-.009.373-.014,1.55-.069,3.107-.11,4.674-.11,1.382,0,2.756.035,4.125.09.22.009.441.015.66.025,1.306.06,2.605.146,3.897.254.248.021.495.043.743.066,1.306.119,2.606.257,3.897.425.153.02.305.044.459.064,1.261.169,2.515.361,3.762.576.135.023.271.043.406.067,1.277.225,2.544.479,3.804.751.237.051.474.102.71.155,1.235.276,2.462.573,3.68.893.212.056.423.115.635.172,1.265.341,2.523.699,3.768,1.087.028.009.056.018.084.027,1.235.386,2.458.8,3.673,1.231.187.066.375.131.562.198,1.178.426,2.345.874,3.503,1.342.22.089.44.179.66.27,1.163.479,2.317.975,3.458,1.494.144.066.287.135.431.201,1.125.519,2.24,1.056,3.342,1.614.096.049.194.095.29.144,1.128.575,2.241,1.176,3.345,1.791.196.11.393.218.589.329,1.076.609,2.139,1.237,3.19,1.883.181.111.36.225.541.338,1.084.676,2.158,1.367,3.215,2.082.039.027.078.054.117.081,1.043.708,2.07,1.439,3.085,2.184.144.106.289.209.433.316.995.738,1.975,1.497,2.942,2.27.177.141.353.283.528.426.966.783,1.92,1.581,2.857,2.398.119.104.237.211.356.316.937.825,1.862,1.665,2.768,2.523.053.05.107.099.16.149.92.875,1.82,1.77,2.707,2.678.146.15.293.298.438.449.859.89,1.701,1.795,2.528,2.715.137.152.271.306.407.459.847.955,1.681,1.921,2.492,2.907.036.044.071.089.107.133.802.978,1.584,1.972,2.35,2.98.094.123.189.245.283.369.753,1,1.486,2.016,2.203,3.044.123.177.246.353.368.531.71,1.032,1.405,2.076,2.078,3.135.086.135.169.271.254.406.684,1.087,1.352,2.186,1.996,3.3.017.03.036.059.053.09.646,1.121,1.267,2.259,1.871,3.406.091.173.184.345.274.519.579,1.114,1.138,2.24,1.676,3.378.087.184.173.37.259.555.546,1.17,1.075,2.349,1.577,3.543.028.067.055.136.083.203.496,1.185.967,2.381,1.419,3.588.048.128.098.255.146.383.445,1.203.864,2.418,1.265,3.642.066.203.133.406.198.61.391,1.22.762,2.449,1.108,3.688.045.163.088.326.132.489.354,1.294.69,2.595.994,3.909,0,0,0,.001,0,.002l64.363-15.907h-38.03l-31.096-36.141v-49.776l49.251-47.77Z" style="fill: #d8d8dd;"/>
    </g>
    <path d="M379.37,449.408l-161.922-62.818c-2.655,7.299-4.998,14.746-7.04,22.318l166.858,47.968c.609-2.527,1.312-5.018,2.104-7.468Z" style="fill: #bcbdc9;"/>
    <path d="M572.339,518.913c-3.095,7.776-7.114,15.084-11.922,21.789l138.643,104.385c13.001-17.566,23.973-36.723,32.557-57.135l-159.279-69.04Z" style="fill: #a486de;"/>
    <path d="M399.891,413.333l-128.089-117.079c-17.264,19.162-31.882,40.752-43.279,64.2l155.972,76.124c4.069-8.459,9.268-16.27,15.395-23.246Z" style="fill: #7d48e6;"/>
    <path d="M523.8,389.688c1.015.522,2.018,1.065,3.013,1.619.189.105.377.21.565.316,1,.565,1.992,1.143,2.971,1.74.034.021.067.042.101.063.948.58,1.884,1.178,2.811,1.788.163.107.327.214.489.322.961.64,1.913,1.292,2.851,1.963.043.031.086.063.129.094.906.65,1.8,1.318,2.684,1.996.126.096.252.192.377.289.926.718,1.841,1.45,2.741,2.198.038.031.075.064.113.095.879.733,1.744,1.482,2.597,2.243.082.073.164.145.245.218.89.799,1.767,1.612,2.628,2.441.025.024.05.049.075.073.857.827,1.699,1.669,2.527,2.524.035.036.07.071.104.107.851.882,1.685,1.778,2.504,2.69.01.011.02.023.03.034,4.993,5.563,9.386,11.675,13.08,18.235,0,0,0,0,0,0l20.082-8.358-14.349-16.678v-49.776l49.251-47.77h8.201v-57.266c-11.764-7.819-24.162-14.759-37.1-20.729l-68.721,159.527Z" style="fill: #bcbdc9;"/>
    <path d="M574.968,450.497c.333,1.07.642,2.149.94,3.234.074.271.148.541.22.813.29,1.09.569,2.184.824,3.288,0,.002,0,.004.001.006.254,1.101.484,2.21.702,3.324.054.278.108.557.16.836.21,1.121.408,2.245.581,3.379,0,0,0,.001,0,.001.173,1.131.32,2.271.456,3.415.034.284.066.568.098.853.253,2.294.429,4.61.528,6.947.012.293.023.585.033.879.04,1.171.067,2.345.067,3.526,0,1.23-.03,2.453-.072,3.673-.01.27-.019.54-.031.809-.052,1.213-.121,2.422-.215,3.624-.007.09-.017.179-.024.268-.095,1.171-.212,2.336-.346,3.496-.02.178-.04.356-.061.533-.15,1.241-.32,2.475-.514,3.702-.011.068-.023.135-.034.203-.201,1.256-.424,2.504-.669,3.744-.004.022-.008.044-.013.066-.255,1.285-.536,2.56-.839,3.827-.005.021-.01.042-.015.063-.612,2.55-1.319,5.063-2.117,7.536l161.963,62.706c10.68-29.411,16.512-61.148,16.512-94.25,0-26.312-3.684-51.762-10.558-75.868l-43.182,11.69-34.118,25.025h-58.321l-31.959,8.652v.002Z" style="fill: #bcbdc9;"/>
    <path d="M517.416,655.259l-12.277-75.588c-1.019.29-2.045.56-3.077.819-.255.064-.512.125-.768.187-.822.2-1.649.39-2.479.569-.239.052-.476.106-.715.156-1.039.217-2.082.421-3.132.607-.144.025-.289.047-.433.072-.907.156-1.818.3-2.733.432-.294.043-.588.084-.883.124-.883.12-1.769.229-2.659.326-.189.021-.377.045-.566.065-1.06.11-2.126.202-3.195.279-.266.019-.533.033-.799.051-.838.054-1.678.098-2.521.132-.307.012-.615.025-.923.035-1.085.034-2.172.057-3.265.057-1.204,0-2.401-.026-3.595-.067-.342-.012-.682-.032-1.023-.048-.868-.039-1.735-.085-2.597-.145-.365-.026-.729-.055-1.094-.085-.859-.069-1.716-.148-2.569-.238-.33-.035-.66-.069-.989-.107-.932-.108-1.859-.229-2.784-.361-.176-.025-.355-.043-.531-.069l.969,68.639,25.845-39.702,28.791,43.862Z" style="fill: #d8d8dd;"/>
    <path d="M469.588,583.307c-4.612-.329-9.138-.964-13.561-1.884-.252-.052-.506-.1-.758-.154-.591-.128-1.178-.267-1.765-.405-.399-.093-.799-.183-1.197-.281-.511-.126-1.018-.262-1.525-.396-.472-.124-.943-.247-1.412-.378-.453-.126-.902-.26-1.353-.392-.523-.154-1.046-.308-1.565-.47-.403-.126-.804-.256-1.205-.386-.564-.183-1.126-.37-1.686-.562-.361-.124-.719-.252-1.078-.38-.599-.214-1.196-.433-1.79-.658-.318-.12-.635-.242-.951-.365-.635-.248-1.266-.502-1.895-.762-.275-.114-.55-.227-.823-.343-.674-.285-1.344-.579-2.011-.879-.225-.101-.45-.2-.674-.303-.723-.331-1.439-.671-2.153-1.018-.168-.082-.337-.161-.504-.244-.787-.388-1.567-.787-2.342-1.194-.073-.038-.147-.074-.22-.112l32.032,81.858,9.382-14.413-.651-55.854c-.099-.007-.198-.018-.297-.025Z" style="fill: #bcbdc9;"/>
    <path d="M283.888,665.741h20.265l35.152-63.799,21.493,38.291,36.513-94.628c-2.674-3.292-5.144-6.755-7.399-10.366-.091-.146-.176-.296-.266-.442-.569-.922-1.135-1.845-1.675-2.786l-140.558,102.416c5.403,8.068,11.228,15.828,17.428,23.263h19.047v8.052Z" style="fill: #bcbdc9;"/>
  </g>
</svg>